<?xml version="1.0" encoding="UTF-8"?>
<!--
  - Copyright (c) 2024 gohj99. Lorem ipsum dolor sit amet, consectetur adipiscing elit.
  - Morbi non lorem porttitor neque feugiat blandit. Ut vitae ipsum eget quam lacinia accumsan.
  - Etiam sed turpis ac ipsum condimentum fringilla. Maecenas magna.
  - Proin dapibus sapien vel ante. Aliquam erat volutpat. Pellentesque sagittis ligula eget metus.
  - Vestibulum commodo. Ut rhoncus gravida arcu.
  -->

<svg version="1.1" viewBox="0 0 192 192" xmlns="http://www.w3.org/2000/svg">
    <defs>
        <style>
            .cls-1, .cls-2 {
            fill: #fff;
            }

            .cls-2 {
            isolation: isolate;
            opacity: .8;
            }
        </style>
    </defs>
    <!-- Generator: Adobe Illustrator 28.7.0, SVG Export Plug-In . SVG Version: 1.2.0 Build 17)  -->
    <g>
        <g id="_图层_1">
            <g>
                <polygon class="cls-1" points="70 99 105.4 74 90 106.3 70 99" />
                <polygon class="cls-2" points="105.4 74 90 106.3 90.9 110.7 95.1 107.6 105.4 74" />
                <polygon class="cls-1" points="105.4 74 95.1 107.6 114 114.2 105.4 74" />
            </g>
            <g>
                <path class="cls-1"
                    d="M141.4,60.3l-7.5,12.7c-3.7-6.1-8.9-11.4-15.4-15.2s-13.7-5.8-20.8-6.1l7.5-12.7c4.9-8.4,15.8-11.2,24.2-6.3l5.8,3.4c8.4,4.9,11.2,15.8,6.3,24.2Z" />
                <path class="cls-1"
                    d="M73.5,134.2c6.6,3.9,13.7,5.8,20.8,6.1l-7.5,12.7c-4.9,8.4-15.8,11.2-24.2,6.3l-5.8-3.4c-8.4-4.9-11.2-15.8-6.3-24.2l7.5-12.7c3.7,6.1,8.9,11.4,15.4,15.2h0Z" />
                <path class="cls-1"
                    d="M133.9,73c-3.7-6.1-8.9-11.4-15.4-15.2s-13.7-5.8-20.8-6.1c-15.8-.6-31.3,7.3-39.9,21.8s-7.9,32,.3,45.5c3.7,6.1,8.9,11.4,15.4,15.2s13.7,5.8,20.8,6.1c15.8.6,31.3-7.3,39.9-21.8s7.9-32-.3-45.5h0ZM79.2,124.6c-15.8-9.3-21.1-29.7-11.8-45.5,9.3-15.8,29.7-21.1,45.5-11.8,15.8,9.3,21.1,29.7,11.8,45.5s-29.7,21.1-45.5,11.8Z" />
            </g>
        </g>
    </g>
</svg>